<svg xmlns="http://www.w3.org/2000/svg" viewBox="0 0 520 320" role="img" aria-labelledby="hook-t hook-d"><title id="hook-t">Three days on paper</title><desc id="hook-d">Thara's head of IT stands in water in the basement server room in Colombo. The two server racks are half submerged and their warning lights are on. The chief financial officer looks on from the dry step at the doorway, holding her tablet.</desc><rect width="520" height="320" fill="#F7F7F7"/><rect x="0" y="0" width="520" height="22" fill="#BBBBBB"/><rect x="12" y="40" width="106" height="188" rx="4" fill="#DEF5F1" stroke="#AAAAAA" stroke-width="2"/><rect x="6" y="226" width="122" height="26" fill="#BBBBBB"/><rect x="6" y="252" width="150" height="68" fill="#AAAAAA"/><rect x="252" y="22" width="14" height="40" fill="#AAAAAA"/><rect x="244" y="58" width="30" height="10" rx="3" fill="#AAAAAA"/><path d="M259 72 q-4 8 0 12 q4 -4 0 -12 Z" fill="#48C9B0"/><path d="M259 100 q-4 8 0 12 q4 -4 0 -12 Z" fill="#48C9B0" opacity=".7"/><rect x="296" y="64" width="96" height="216" rx="6" fill="#0D2B45"/><rect x="306" y="80" width="76" height="23" rx="3" fill="#133B50"/><circle cx="317" cy="91.5" r="3.5" fill="#E86A5B"/><rect x="328" y="89" width="42" height="5" rx="2" fill="#0D2B45"/><rect x="306" y="111" width="76" height="23" rx="3" fill="#133B50"/><circle cx="317" cy="122.5" r="3.5" fill="#AAAAAA"/><rect x="328" y="120" width="42" height="5" rx="2" fill="#0D2B45"/><rect x="306" y="142" width="76" height="23" rx="3" fill="#133B50"/><circle cx="317" cy="153.5" r="3.5" fill="#AAAAAA"/><rect x="328" y="151" width="42" height="5" rx="2" fill="#0D2B45"/><rect x="306" y="173" width="76" height="23" rx="3" fill="#133B50"/><circle cx="317" cy="184.5" r="3.5" fill="#E86A5B"/><rect x="328" y="182" width="42" height="5" rx="2" fill="#0D2B45"/><rect x="306" y="204" width="76" height="23" rx="3" fill="#133B50"/><circle cx="317" cy="215.5" r="3.5" fill="#AAAAAA"/><rect x="328" y="213" width="42" height="5" rx="2" fill="#0D2B45"/><rect x="306" y="235" width="76" height="23" rx="3" fill="#133B50"/><circle cx="317" cy="246.5" r="3.5" fill="#AAAAAA"/><rect x="328" y="244" width="42" height="5" rx="2" fill="#0D2B45"/><rect x="404" y="64" width="96" height="216" rx="6" fill="#0D2B45"/><rect x="414" y="80" width="76" height="23" rx="3" fill="#133B50"/><circle cx="425" cy="91.5" r="3.5" fill="#AAAAAA"/><rect x="436" y="89" width="42" height="5" rx="2" fill="#0D2B45"/><rect x="414" y="111" width="76" height="23" rx="3" fill="#133B50"/><circle cx="425" cy="122.5" r="3.5" fill="#AAAAAA"/><rect x="436" y="120" width="42" height="5" rx="2" fill="#0D2B45"/><rect x="414" y="142" width="76" height="23" rx="3" fill="#133B50"/><circle cx="425" cy="153.5" r="3.5" fill="#E86A5B"/><rect x="436" y="151" width="42" height="5" rx="2" fill="#0D2B45"/><rect x="414" y="173" width="76" height="23" rx="3" fill="#133B50"/><circle cx="425" cy="184.5" r="3.5" fill="#AAAAAA"/><rect x="436" y="182" width="42" height="5" rx="2" fill="#0D2B45"/><rect x="414" y="204" width="76" height="23" rx="3" fill="#133B50"/><circle cx="425" cy="215.5" r="3.5" fill="#AAAAAA"/><rect x="436" y="213" width="42" height="5" rx="2" fill="#0D2B45"/><rect x="414" y="235" width="76" height="23" rx="3" fill="#133B50"/><circle cx="425" cy="246.5" r="3.5" fill="#E86A5B"/><rect x="436" y="244" width="42" height="5" rx="2" fill="#0D2B45"/><g transform="translate(24.8 31.1) scale(0.62)"><ellipse cx="60" cy="316" rx="38" ry="5" fill="#0D2B45" opacity=".12"/><rect x="45" y="236" width="11" height="68" rx="5" fill="#C68B6E"/><rect x="64" y="236" width="11" height="68" rx="5" fill="#A9704F"/><path d="M38 182 L82 182 L94 252 L26 252 Z" fill="#0D2B45"/><path d="M60 186 L60 252" stroke="#0A2237" stroke-width="1.5"/><path d="M36 300 L58 300 L59 312 Q59 316 55 316 L30 316 Q27 316 29 311 Z" fill="#081C2D"/><path d="M62 300 L84 300 L91 311 Q93 316 90 316 L65 316 Q61 316 61 312 Z" fill="#081C2D"/><circle cx="60" cy="14" r="12" fill="#1E1A1A"/><path d="M36 98 Q26 140 30 176" stroke="#0D2B45" stroke-width="14" stroke-linecap="round" fill="none"/><circle cx="30" cy="182" r="7" fill="#C68B6E"/><rect x="51" y="66" width="18" height="24" rx="6" fill="#A9704F"/><path d="M33 98 Q33 86 47 84 L73 84 Q87 86 87 98 L84 140 Q82 162 84 186 L36 186 Q38 162 36 140 Z" fill="#2A7A7A"/><path d="M48 84 Q60 104 72 84" fill="#A9704F"/><path d="M34 120 L86 120" stroke="#226464" stroke-width="2"/><path d="M33 98 Q33 86 47 84 L54 84 L60 132 L52 188 L35 188 Q38 162 36 140 Z" fill="#0D2B45"/><path d="M87 98 Q87 86 73 84 L66 84 L60 132 L68 188 L85 188 Q82 162 84 140 Z" fill="#0B263E"/><path d="M54 84 L46 108 L56 112 Z" fill="#092033"/><path d="M66 84 L74 108 L64 112 Z" fill="#081D2E"/><circle cx="57" cy="160" r="2" fill="#071929"/><path d="M84 98 Q96 128 88 146 Q60 150 56 140" stroke="#0B263E" stroke-width="14" stroke-linecap="round" fill="none"/><circle cx="54" cy="138" r="7.5" fill="#C68B6E"/><g transform="rotate(-8 59 146)"><rect x="38" y="118" width="42" height="56" rx="4" fill="#0D2B45"/><rect x="42" y="123" width="34" height="44" rx="2" fill="#FFFFFF"/><rect x="47" y="150" width="5" height="12" fill="#2A7A7A"/><rect x="55" y="142" width="5" height="20" fill="#2A7A7A"/><rect x="63" y="134" width="5" height="28" fill="#F4B942"/><rect x="46" y="128" width="26" height="2.5" fill="#BBBBBB"/></g><ellipse cx="79" cy="150" rx="6.5" ry="7.5" fill="#C68B6E"/><path d="M76 146 l6 -2" stroke="#A9704F" stroke-width="2" stroke-linecap="round"/><ellipse cx="38" cy="46" rx="5" ry="7" fill="#A9704F"/><ellipse cx="82" cy="46" rx="5" ry="7" fill="#A9704F"/><ellipse cx="60" cy="42" rx="22" ry="26" fill="#C68B6E"/><circle cx="37" cy="55" r="2.4" fill="#F4B942"/><circle cx="83" cy="55" r="2.4" fill="#F4B942"/><path d="M38 44 C36 14 84 14 82 44 C78 30 70 24 60 25 C52 24 44 30 38 44 Z" fill="#1E1A1A"/><ellipse cx="51" cy="44" rx="2.3" ry="2.9" fill="#081C2D"/><ellipse cx="69" cy="44" rx="2.3" ry="2.9" fill="#081C2D"/><path d="M46 38 Q51 34 55 34 M65 34 Q69 34 74 38" stroke="#1E1A1A" stroke-width="2" fill="none" stroke-linecap="round"/><path d="M59 49 Q57 55 60 56 Q62 56 63 54" stroke="#7A4B36" stroke-width="1.5" fill="none" stroke-linecap="round" opacity=".8"/><path d="M54 64 Q60 59 66 64" stroke="#7A4B36" stroke-width="2" fill="none" stroke-linecap="round"/></g><g transform="translate(148.0 49.2) scale(0.8)"><ellipse cx="60" cy="316" rx="38" ry="5" fill="#0D2B45" opacity=".12"/><path d="M38 182 L60 182 L58 302 L42 302 Z" fill="#0D2B45"/><path d="M60 182 L82 182 L78 302 L62 302 Z" fill="#0B243A"/><path d="M60 190 L60 240" stroke="#091E30" stroke-width="1.2"/><path d="M36 300 L58 300 L59 312 Q59 316 55 316 L30 316 Q27 316 29 311 Z" fill="#081C2D"/><path d="M62 300 L84 300 L91 311 Q93 316 90 316 L65 316 Q61 316 61 312 Z" fill="#081C2D"/><path d="M36 98 Q26 140 30 176" stroke="#DEF5F1" stroke-width="14" stroke-linecap="round" fill="none"/><circle cx="30" cy="182" r="7" fill="#A8705A"/><path d="M84 98 Q106 132 88 168" stroke="#C7DCD8" stroke-width="14" stroke-linecap="round" fill="none"/><circle cx="85" cy="170" r="7.5" fill="#A8705A"/><rect x="51" y="66" width="18" height="24" rx="6" fill="#8C5843"/><path d="M33 98 Q33 86 47 84 L73 84 Q87 86 87 98 L84 140 Q82 162 84 186 L36 186 Q38 162 36 140 Z" fill="#DEF5F1"/><path d="M50 84 L60 100 L70 84" fill="none" stroke="#ADBFBB" stroke-width="2"/><path d="M60 100 L60 180" stroke="#B6C8C5" stroke-width="1.4"/><circle cx="60" cy="116" r="1.6" fill="#9BABA8"/><circle cx="60" cy="136" r="1.6" fill="#9BABA8"/><circle cx="60" cy="156" r="1.6" fill="#9BABA8"/><rect x="35" y="180" width="50" height="6" fill="#071929"/><path d="M50 86 L56 140 M70 86 L64 140" stroke="#48C9B0" stroke-width="3"/><rect x="51" y="138" width="18" height="24" rx="2.5" fill="#FFFFFF" stroke="#BBBBBB" stroke-width="1"/><rect x="54" y="142" width="12" height="7" fill="#2A7A7A"/><rect x="54" y="152" width="12" height="2" fill="#BBBBBB"/><rect x="54" y="156" width="8" height="2" fill="#BBBBBB"/><ellipse cx="38" cy="46" rx="5" ry="7" fill="#8C5843"/><ellipse cx="82" cy="46" rx="5" ry="7" fill="#8C5843"/><ellipse cx="60" cy="42" rx="22" ry="26" fill="#A8705A"/><path d="M37 42 C33 14 86 8 84 40 C82 30 76 24 66 23 C58 30 46 30 40 34 Z" fill="#1E1A1A"/><ellipse cx="51" cy="44" rx="2.3" ry="2.9" fill="#081C2D"/><ellipse cx="69" cy="44" rx="2.3" ry="2.9" fill="#081C2D"/><path d="M46 38 Q51 34 55 34 M65 34 Q69 34 74 38" stroke="#1E1A1A" stroke-width="2" fill="none" stroke-linecap="round"/><path d="M59 49 Q57 55 60 56 Q62 56 63 54" stroke="#5E3A2B" stroke-width="1.5" fill="none" stroke-linecap="round" opacity=".8"/><path d="M54 64 Q60 59 66 64" stroke="#5E3A2B" stroke-width="2" fill="none" stroke-linecap="round"/><circle cx="51" cy="44" r="7" fill="none" stroke="#0D2B45" stroke-width="1.8"/><circle cx="69" cy="44" r="7" fill="none" stroke="#0D2B45" stroke-width="1.8"/><path d="M58 44 L62 44 M44 43 L38 41 M76 43 L82 41" stroke="#0D2B45" stroke-width="1.8"/></g><path d="M0 240 Q20 233 40 240 T80 240 Q100 233 120 240 T160 240 Q180 233 200 240 T240 240 Q260 233 280 240 T320 240 Q340 233 360 240 T400 240 Q420 233 440 240 T480 240 Q500 233 520 240 T560 240 L520 320 L0 320 Z" fill="#48C9B0" opacity=".55"/><path d="M0 240 Q20 233 40 240 T80 240 Q100 233 120 240 T160 240 Q180 233 200 240 T240 240 Q260 233 280 240 T320 240 Q340 233 360 240 T400 240 Q420 233 440 240 T480 240 Q500 233 520 240 T560 240 L520 320 L0 320 Z" fill="none" stroke="#2A7A7A" stroke-width="1.5" opacity=".6"/></svg>
